<?xml version="1.0" encoding="utf-8"?>
<!-- Generator: Adobe Illustrator 15.0.0, SVG Export Plug-In . SVG Version: 6.00 Build 0)  -->
<!DOCTYPE svg PUBLIC "-//W3C//DTD SVG 1.1//EN" "http://www.w3.org/Graphics/SVG/1.1/DTD/svg11.dtd">
<svg version="1.1" id="Layer_1" xmlns="http://www.w3.org/2000/svg" xmlns:xlink="http://www.w3.org/1999/xlink" x="0px" y="0px"
	 width="388px" height="371.528px" viewBox="0 0 388 371.528" enable-background="new 0 0 388 371.528" xml:space="preserve">
<g>
	<path fill="#FFFFFF" d="M128.427,312.776c0,0,27.766,18.981,66.045,18.981c38.28,0,66.614-18.735,66.614-18.735
		S179.436,246.863,128.427,312.776z"/>
	<path fill="#FFFFFF" d="M318.296,111.361c-11.265-30.161-55.969-36.095-55.969-36.095l-43.243,6.905l-21.078,18.169l-3.045,8.882
		l-4.673-13.628l-21.772-18.77l-44.671-7.133c0,0-46.173,6.757-57.81,37.914s-3.317,90.077-3.317,90.077
		c11.698,27.762,70.137,44.312,76.518,46.189c4.906,1.443,38.875-3.77,54.321-6.258c14.255,2.31,48.983,7.704,53.874,6.266
		c6.178-1.816,67.801-18.929,79.126-45.805C326.555,198.076,329.562,141.523,318.296,111.361z"/>
	<g>
		<g>
			<g>
				<g>
					<path fill-rule="evenodd" clip-rule="evenodd" fill="#603913" d="M216.915,189.581l-21.473,21.806v-0.81l-0.124,0.81
						l-21.464-21.806c0,0,4.476-59.366,21.513-59.366C212.412,130.215,216.915,189.581,216.915,189.581z"/>
					<path fill-rule="evenodd" clip-rule="evenodd" fill="#603913" d="M320.813,268.622L320.813,268.622
						c2.332-6.345-0.942-13.437-7.296-15.786l-3.257-1.192c-6.371-2.376-13.464,0.908-15.805,7.243l0,0
						c-2.331,6.327,0.908,13.438,7.262,15.813l3.311,1.21C311.354,278.224,318.465,274.967,320.813,268.622"/>
					<path fill-rule="evenodd" clip-rule="evenodd" fill="#603913" d="M327.772,249.704L327.772,249.704
						c2.35-6.354-0.907-13.464-7.243-15.804l-3.292-1.201c-6.354-2.341-13.455,0.916-15.795,7.261
						c-2.341,6.362,0.934,13.419,7.278,15.769l3.274,1.21C318.341,259.314,325.45,256.031,327.772,249.704"/>
					<path fill-rule="evenodd" clip-rule="evenodd" fill="#603913" d="M334.767,230.732L334.767,230.732
						c2.358-6.309-0.925-13.438-7.252-15.777l-3.301-1.201c-6.336-2.367-13.455,0.916-15.787,7.262l0,0
						c-2.331,6.344,0.926,13.445,7.297,15.776l3.311,1.237C325.353,240.352,332.453,237.086,334.767,230.732"/>
					<path fill-rule="evenodd" clip-rule="evenodd" fill="#603913" d="M69.475,268.622L69.475,268.622
						c-2.336-6.345,0.938-13.437,7.283-15.786l3.266-1.192c6.345-2.376,13.468,0.908,15.812,7.243l0,0
						c2.345,6.327-0.916,13.438-7.283,15.813l-3.274,1.21C78.925,278.224,71.846,274.967,69.475,268.622"/>
					<path fill-rule="evenodd" clip-rule="evenodd" fill="#603913" d="M62.485,249.704L62.485,249.704
						c-2.331-6.354,0.939-13.464,7.288-15.804l3.288-1.201c6.331-2.341,13.432,0.916,15.781,7.261
						c2.345,6.362-0.934,13.419-7.274,15.769l-3.301,1.21C71.926,259.314,64.83,256.031,62.485,249.704"/>
					<path fill-rule="evenodd" clip-rule="evenodd" fill="#603913" d="M55.504,230.732L55.504,230.732
						c-2.345-6.309,0.93-13.438,7.279-15.777l3.261-1.201c6.358-2.367,13.477,0.916,15.804,7.262l0,0
						c2.345,6.344-0.952,13.445-7.274,15.776l-3.319,1.237C64.941,240.352,57.835,237.086,55.504,230.732"/>
					<g>
						<path fill="#603913" d="M326.26,197.684c-12.564,14.762-30.433,24.817-50.668,27.221c-0.294,0.026-0.569,0.07-0.872,0.115
							c-1.112,0.106-2.189,0.205-3.301,0.267c-1.309,0.099-2.537,0.134-3.854,0.16c-0.374,0.019-0.766,0.019-1.148,0.019
							c-19.043-0.019-36.483-6.799-50.09-18.056l-0.16,0.178c-0.106-0.08-0.178-0.115-0.249-0.178l-14.566,14.789l-6.848,6.995
							l-6.892-6.995l-14.571-14.789c-0.08,0.062-0.125,0.098-0.209,0.178l-0.191-0.178c-13.588,11.257-31.047,18.037-50.077,18.056
							c-0.378,0-0.765,0-1.17-0.019c-1.29-0.026-2.562-0.062-3.84-0.16c-1.107-0.062-2.202-0.16-3.306-0.267
							c-0.285-0.045-0.578-0.089-0.876-0.115c-20.222-2.403-38.126-12.459-50.655-27.221c0.325,8.23,1.068,16.711,2.527,25.191
							l-0.365,0.347c5.469,31.715,21.05,64.31,63.549,89.555c2.171,0.32,3.845-2.198,6.332-2.198c4.609,0,7.871,2.777,9.958,6.461
							c2.033-3.684,5.317-6.461,9.953-6.461c4.592,0,7.884,2.777,9.926,6.461c2.056-3.684,5.339-6.461,9.936-6.461
							c8.583,0,12.564,9.575,12.564,16.854c0,1.29-0.129,2.669-0.387,4.058c2.554,0.169,5.13,0.268,7.764,0.268
							c2.336,0,4.641-0.09,6.919-0.223c-0.249-1.389-0.4-2.768-0.4-4.103c0-7.279,4.004-16.854,12.578-16.854
							c4.609,0,7.893,2.777,9.939,6.461c2.073-3.684,5.33-6.461,9.957-6.461c4.609,0,7.902,2.777,9.913,6.461
							c2.064-3.684,5.357-6.461,9.984-6.461c2.669,0,4.352,2.306,6.674,2.466c42.899-25.236,58.534-57.992,64.052-89.822
							l-0.356-0.347C325.175,214.395,325.922,205.914,326.26,197.684z"/>
					</g>
				</g>
				<g>
					<path fill-rule="evenodd" clip-rule="evenodd" fill="#414042" d="M134.955,315.553c3.929,0,7.101,5.09,7.101,11.373
						c0,6.3-3.172,11.39-7.101,11.39c-3.92,0-7.105-5.09-7.105-11.39C127.849,320.643,131.035,315.553,134.955,315.553"/>
					<path fill-rule="evenodd" clip-rule="evenodd" fill="#414042" d="M154.763,315.553c3.951,0,7.124,5.09,7.124,11.373
						c0,6.3-3.173,11.39-7.124,11.39c-3.893,0-7.061-5.09-7.061-11.39C147.702,320.643,150.87,315.553,154.763,315.553"/>
					<path fill-rule="evenodd" clip-rule="evenodd" fill="#414042" d="M174.606,315.553c3.942,0,7.114,5.09,7.114,11.373
						c0,6.3-3.172,11.39-7.114,11.39c-3.92,0-7.101-5.09-7.101-11.39C167.505,320.643,170.687,315.553,174.606,315.553"/>
					<path fill-rule="evenodd" clip-rule="evenodd" fill="#414042" d="M213.498,315.553c3.933,0,7.083,5.09,7.083,11.373
						c0,6.3-3.15,11.39-7.083,11.39c-3.915,0-7.093-5.09-7.093-11.39C206.405,320.643,209.583,315.553,213.498,315.553"/>
					<path fill-rule="evenodd" clip-rule="evenodd" fill="#414042" d="M233.315,315.553c3.924,0,7.092,5.09,7.092,11.373
						c0,6.3-3.168,11.39-7.092,11.39c-3.916,0-7.075-5.09-7.075-11.39C226.24,320.643,229.399,315.553,233.315,315.553"/>
					<path fill-rule="evenodd" clip-rule="evenodd" fill="#414042" d="M253.149,315.553c3.906,0,7.065,5.09,7.065,11.373
						c0,6.3-3.159,11.39-7.065,11.39c-3.924,0-7.119-5.09-7.119-11.39C246.03,320.643,249.226,315.553,253.149,315.553"/>
				</g>
			</g>
			<g>
				<path fill="#603913" d="M67.455,114.936c4.521,0,6.011-0.947,9.936-3.506c2.398-1.579,5.264-3.368,9.201-5.25
					c6.305-9.419,15.781-17.17,28.302-21.285c41.943-13.815,69.777,17.116,77.03,26.513c7.288-9.396,35.101-40.328,77.049-26.513
					c11.354,3.737,20.182,10.434,26.438,18.629c7.644,2.723,12.066,5.606,15.635,7.906c3.47,2.27,5.072,3.283,8.587,3.492
					c-8.926-30.882-25.762-61.866-34.695-77.172c-1.353-2.322-3.648-3.915-6.301-4.383c-2.634-0.489-5.374,0.2-7.438,1.892
					c-5.322,4.373-13.438,10.063-24.543,15.336c-27.176,12.926-85.101,10.331-109.417,0c-11.924-5.059-19.794-10.385-24.8-14.603
					c-2.06-1.779-4.841-2.522-7.497-2.056c-2.656,0.454-5.01,2.092-6.371,4.428c-9.015,15.536-25.548,46.188-34.384,76.7
					C65.244,114.976,66.311,114.936,67.455,114.936z"/>
			</g>
		</g>
		<path fill="#1C75BC" d="M320.956,122.709c-14.54,0-12.137-9.108-40.052-15.159c-40.907-8.329-72.327,18.171-72.327,18.171
			c-4.797-2.27-11.133-2.923-14.358-3.114c-3.23,0.191-9.606,0.845-14.375,3.114c0,0-31.452-26.5-72.314-18.171
			c-27.946,6.051-25.53,15.159-40.075,15.159c-12.604,0-15.675,5.116-14.865,10.531c0.805,5.437,11.519,5.437,15.333,5.882
			c0,0-1.108,74.738,53.96,77.124c55.091,2.385,59.078-33.504,62.107-49.499c0,0,1.753-20.431,1.268-27.923
			c0,0,3.715-2.172,8.961-2.283c5.251,0.111,8.917,2.283,8.917,2.283c-0.467,7.492,1.285,27.923,1.285,27.923
			c3.025,15.995,7.013,51.884,62.104,49.499c55.072-2.386,53.951-77.124,53.951-77.124c3.845-0.445,13.268-0.445,14.068-5.882
			C335.31,127.825,333.593,122.709,320.956,122.709z M153.174,195.814C129.553,209.376,97.781,207,87.886,179.517
			c-9.899-27.438-8.96-44.52,6.687-52.67c12.343-6.398,47.167-12.423,72.804,6.091c1.984,1.446,3.226,3.671,3.435,6.096
			C171.741,150.379,172.769,184.554,153.174,195.814z M300.543,179.517c-9.913,27.483-41.681,29.859-65.297,16.298
			c-19.612-11.261-18.562-45.436-17.628-56.781c0.195-2.425,1.441-4.649,3.426-6.096c25.646-18.514,60.438-12.489,72.771-6.091
			C309.478,134.997,310.421,152.078,300.543,179.517z"/>
		<path fill="#414042" d="M153.824,162.712c0,10.968-8.907,19.861-19.897,19.861c-11.003,0-19.897-8.894-19.897-19.861
			c0-11.012,8.894-19.929,19.897-19.929C144.917,142.783,153.824,151.7,153.824,162.712z"/>
		<path fill="#414042" d="M273.189,165.257c0,11.012-8.935,19.91-19.915,19.91c-10.999,0-19.879-8.898-19.879-19.91
			c0-10.954,8.88-19.897,19.879-19.897C264.255,145.359,273.189,154.303,273.189,165.257z"/>
	</g>
</g>
</svg>
